<svg width="24" height="24" viewBox="0 0 24 24" fill="none" xmlns="http://www.w3.org/2000/svg">

    <!--    Arrows -->
    <g id="arrow-ios-Up">
        <g clip-path="url(#clip0_5661_1854)">
            <path d="M19.5416 14.5142C19.542 14.7478 19.4606 14.9742 19.3116 15.1542C19.2276 15.2554 19.1245 15.3391 19.0082 15.4005C18.8918 15.4618 18.7645 15.4996 18.6335 15.5117C18.5026 15.5238 18.3705 15.5099 18.2449 15.4708C18.1193 15.4318 18.0026 15.3684 17.9016 15.2842L12.5416 10.8042L7.17157 15.1242C7.06928 15.2072 6.95158 15.2693 6.82524 15.3067C6.6989 15.3441 6.56641 15.3562 6.43538 15.3423C6.30436 15.3283 6.17737 15.2886 6.06174 15.2255C5.9461 15.1623 5.84409 15.0769 5.76157 14.9742C5.67053 14.8707 5.60186 14.7495 5.55987 14.6183C5.51788 14.487 5.50348 14.3485 5.51757 14.2114C5.53165 14.0743 5.57392 13.9416 5.64172 13.8216C5.70952 13.7016 5.80139 13.5969 5.91157 13.5142L11.9116 8.68415C12.0905 8.53707 12.3149 8.45667 12.5466 8.45667C12.7782 8.45667 13.0026 8.53707 13.1816 8.68415L19.1816 13.6842C19.3026 13.7845 19.3982 13.9119 19.4608 14.0561C19.5233 14.2003 19.551 14.3572 19.5416 14.5142Z" />
        </g>
        <defs>
            <clipPath id="clip0_5661_1854">
                <rect width="24" height="24" fill="white"/>
            </clipPath>
        </defs>
    </g>
    <g id="arrow-ios-Down-outline">
        <g clip-path="url(#clip0_5661_1754)">
            <path d="M5.51414 9.45842C5.51369 9.22477 5.59506 8.99834 5.74414 8.81842C5.82809 8.71717 5.93119 8.63346 6.04754 8.57211C6.16389 8.51076 6.29119 8.47296 6.42217 8.46089C6.55315 8.44881 6.68522 8.46269 6.81082 8.50174C6.93643 8.54078 7.05309 8.60422 7.15414 8.68842L12.5141 13.1684L17.8841 8.84843C17.9864 8.76536 18.1041 8.70333 18.2305 8.6659C18.3568 8.62846 18.4893 8.61637 18.6203 8.63031C18.7514 8.64425 18.8783 8.68395 18.994 8.74712C19.1096 8.81029 19.2116 8.8957 19.2941 8.99843C19.3852 9.10189 19.4538 9.22306 19.4958 9.35432C19.5378 9.48558 19.5522 9.62411 19.5381 9.7612C19.5241 9.89829 19.4818 10.031 19.414 10.151C19.3462 10.271 19.2543 10.3756 19.1441 10.4584L13.1441 15.2884C12.9652 15.4355 12.7408 15.5159 12.5091 15.5159C12.2775 15.5159 12.0531 15.4355 11.8741 15.2884L5.87414 10.2884C5.75313 10.1881 5.65746 10.0607 5.59491 9.91646C5.53236 9.77225 5.50469 9.61533 5.51414 9.45842Z" fill="black"/>
        </g>
        <defs>
            <clipPath id="clip0_5661_1754">
                <rect width="24" height="24" fill="white"/>
            </clipPath>
        </defs>
    </g>
    <g id="arrow-ios-back-outline">
        <g clip-path="url(#clip0_5661_1652)">
            <path d="M13.83 19C13.6806 19.0005 13.533 18.9675 13.398 18.9035C13.263 18.8395 13.1441 18.746 13.05 18.63L8.22 12.63C8.07292 12.4511 7.99252 12.2266 7.99252 11.995C7.99252 11.7634 8.07292 11.5389 8.22 11.36L13.22 5.36C13.3897 5.15578 13.6337 5.02736 13.8981 5.00298C14.1625 4.9786 14.4258 5.06026 14.63 5.23C14.8342 5.39974 14.9626 5.64365 14.987 5.90808C15.0114 6.1725 14.9297 6.43578 14.76 6.64L10.29 12L14.61 17.36C14.7323 17.5068 14.81 17.6855 14.8338 17.8751C14.8577 18.0646 14.8268 18.257 14.7447 18.4296C14.6627 18.6021 14.5329 18.7475 14.3708 18.8486C14.2087 18.9497 14.021 19.0022 13.83 19Z" fill="black"/>
        </g>
        <defs>
            <clipPath id="clip0_5661_1652">
                <rect width="24" height="24" fill="white"/>
            </clipPath>
        </defs>
    </g>
    <g id="arrow-ios-back">
        <g clip-path="url(#clip0_5661_1844)">
            <path d="M13.83 19C13.6806 19.0005 13.533 18.9675 13.398 18.9035C13.263 18.8395 13.1441 18.746 13.05 18.63L8.22 12.63C8.07292 12.4511 7.99251 12.2266 7.99251 11.995C7.99251 11.7634 8.07292 11.5389 8.22 11.36L13.22 5.36C13.3897 5.15578 13.6336 5.02736 13.8981 5.00298C14.1625 4.9786 14.4258 5.06026 14.63 5.23C14.8342 5.39974 14.9626 5.64365 14.987 5.90808C15.0114 6.1725 14.9297 6.43578 14.76 6.64L10.29 12L14.61 17.36C14.7323 17.5068 14.81 17.6855 14.8338 17.8751C14.8577 18.0646 14.8268 18.257 14.7447 18.4296C14.6627 18.6021 14.5329 18.7475 14.3708 18.8486C14.2087 18.9497 14.021 19.0022 13.83 19Z" fill="black"/>
        </g>
        <defs>
            <clipPath id="clip0_5661_1844">
                <rect width="24" height="24" fill="white"/>
            </clipPath>
        </defs>
    </g>
    <g id="arrow-ios-forward-outline">
        <g clip-path="url(#clip0_5661_1749)">
            <path d="M10 19C9.76635 19.0005 9.53991 18.9191 9.36 18.77C9.25874 18.6861 9.17504 18.583 9.11369 18.4666C9.05233 18.3503 9.01454 18.223 9.00246 18.092C8.99039 17.961 9.00427 17.8289 9.04331 17.7033C9.08236 17.5777 9.1458 17.4611 9.23 17.36L13.71 12L9.39 6.63C9.30693 6.52771 9.2449 6.41002 9.20747 6.28368C9.17004 6.15734 9.15794 6.02485 9.17188 5.89382C9.18582 5.76279 9.22552 5.63581 9.28869 5.52017C9.35187 5.40454 9.43727 5.30252 9.54 5.22C9.64346 5.12897 9.76463 5.0603 9.89589 5.01831C10.0272 4.97632 10.1657 4.96192 10.3028 4.976C10.4399 4.99009 10.5726 5.03236 10.6925 5.10016C10.8125 5.16796 10.9172 5.25983 11 5.37L15.83 11.37C15.9771 11.5489 16.0575 11.7734 16.0575 12.005C16.0575 12.2366 15.9771 12.4611 15.83 12.64L10.83 18.64C10.7297 18.761 10.6022 18.8567 10.458 18.9192C10.3138 18.9818 10.1569 19.0095 10 19Z" fill="black"/>
        </g>
        <defs>
            <clipPath id="clip0_5661_1749">
                <rect width="24" height="24" fill="white"/>
            </clipPath>
        </defs>
    </g>
    <g id="arrow-ios-forward">
        <g clip-path="url(#clip0_5661_1849)">
            <path d="M10 19C9.76635 19.0005 9.53991 18.9191 9.36 18.77C9.25874 18.6861 9.17504 18.583 9.11369 18.4666C9.05233 18.3503 9.01454 18.223 9.00246 18.092C8.99039 17.961 9.00427 17.8289 9.04331 17.7033C9.08236 17.5777 9.1458 17.4611 9.23 17.36L13.71 12L9.39 6.63C9.30693 6.52771 9.2449 6.41002 9.20747 6.28368C9.17004 6.15734 9.15794 6.02485 9.17188 5.89382C9.18582 5.76279 9.22552 5.63581 9.28869 5.52017C9.35187 5.40454 9.43727 5.30252 9.54 5.22C9.64346 5.12897 9.76463 5.0603 9.89589 5.01831C10.0272 4.97632 10.1657 4.96192 10.3028 4.976C10.4399 4.99009 10.5726 5.03236 10.6925 5.10016C10.8125 5.16796 10.9172 5.25983 11 5.37L15.83 11.37C15.9771 11.5489 16.0575 11.7734 16.0575 12.005C16.0575 12.2366 15.9771 12.4611 15.83 12.64L10.83 18.64C10.7297 18.761 10.6022 18.8567 10.458 18.9192C10.3138 18.9818 10.1569 19.0095 10 19Z" fill="black"/>
        </g>
        <defs>
            <clipPath id="clip0_5661_1849">
                <rect width="24" height="24" fill="white"/>
            </clipPath>
        </defs>
    </g>
    <g id="arrow-back-outline">
        <g clip-path="url(#clip0_5661_2037)">
            <path d="M19 11H7.14L10.77 6.64C10.9397 6.43578 11.0214 6.1725 10.997 5.90808C10.9726 5.64365 10.8442 5.39974 10.64 5.23C10.4358 5.06026 10.1725 4.9786 9.90808 5.00298C9.64365 5.02736 9.39974 5.15578 9.23 5.36L4.23 11.36C4.19636 11.4077 4.16628 11.4579 4.14 11.51C4.14 11.56 4.14 11.59 4.07 11.64C4.02467 11.7547 4.00094 11.8767 4 12C4.00094 12.1233 4.02467 12.2453 4.07 12.36C4.07 12.41 4.07 12.44 4.14 12.49C4.16628 12.5421 4.19636 12.5923 4.23 12.64L9.23 18.64C9.32402 18.7529 9.44176 18.8437 9.57485 18.9059C9.70793 18.9681 9.85309 19.0002 10 19C10.2337 19.0005 10.4601 18.9191 10.64 18.77C10.7413 18.6861 10.825 18.583 10.8863 18.4666C10.9477 18.3503 10.9855 18.2229 10.9975 18.092C11.0096 17.961 10.9957 17.8289 10.9567 17.7033C10.9176 17.5777 10.8542 17.4611 10.77 17.36L7.14 13H19C19.2652 13 19.5196 12.8946 19.7071 12.7071C19.8946 12.5196 20 12.2652 20 12C20 11.7348 19.8946 11.4804 19.7071 11.2929C19.5196 11.1054 19.2652 11 19 11Z" fill="black"/>
        </g>
        <defs>
            <clipPath id="clip0_5661_2037">
                <rect width="24" height="24" fill="white"/>
            </clipPath>
        </defs>
    </g>
    <g id="arrow-forward-outline">
        <g clip-path="url(#clip0_5661_2042)">
            <path d="M5 13H16.86L13.23 17.36C13.146 17.4611 13.0826 17.5778 13.0437 17.7034C13.0047 17.829 12.9909 17.961 13.003 18.0919C13.0274 18.3564 13.1558 18.6003 13.36 18.77C13.5642 18.9397 13.8275 19.0214 14.0919 18.997C14.3563 18.9726 14.6003 18.8442 14.77 18.64L19.77 12.64C19.8036 12.5923 19.8337 12.5421 19.86 12.49C19.86 12.44 19.91 12.41 19.93 12.36C19.9753 12.2453 19.9991 12.1233 20 12C19.9991 11.8767 19.9753 11.7547 19.93 11.64C19.93 11.59 19.88 11.56 19.86 11.51C19.8337 11.4579 19.8036 11.4077 19.77 11.36L14.77 5.36C14.676 5.24712 14.5582 5.15634 14.4252 5.09412C14.2921 5.0319 14.1469 4.99976 14 5C13.7663 4.99955 13.5399 5.08092 13.36 5.23C13.2587 5.31395 13.175 5.41705 13.1137 5.5334C13.0523 5.64975 13.0145 5.77705 13.0025 5.90803C12.9904 6.03901 13.0043 6.17108 13.0433 6.29668C13.0824 6.42229 13.1458 6.53895 13.23 6.64L16.86 11H5C4.73478 11 4.48043 11.1054 4.29289 11.2929C4.10536 11.4804 4 11.7348 4 12C4 12.2652 4.10536 12.5196 4.29289 12.7071C4.48043 12.8946 4.73478 13 5 13Z" fill="black"/>
        </g>
        <defs>
            <clipPath id="clip0_5661_2042">
                <rect width="24" height="24" fill="white"/>
            </clipPath>
        </defs>
    </g>
    <g id="">

    </g>
    <g id="">

    </g>
</svg>